<svg width="29" height="29" viewBox="0 0 29 29" fill="none" xmlns="http://www.w3.org/2000/svg">
<path d="M14.4998 26.583C12.11 26.583 9.7738 25.8743 7.7867 24.5466C5.79961 23.2189 4.25086 21.3317 3.3363 19.1238C2.42174 16.9158 2.18245 14.4863 2.64869 12.1423C3.11493 9.7984 4.26575 7.64535 5.95564 5.95547C7.64552 4.26558 9.79856 3.11476 12.1425 2.64852C14.4864 2.18228 16.916 2.42157 19.1239 3.33613C21.3319 4.25069 23.219 5.79944 24.5468 7.78653C25.8745 9.77363 26.5832 12.1098 26.5832 14.4997C26.5832 16.0865 26.2706 17.6577 25.6634 19.1238C25.0561 20.5898 24.1661 21.9218 23.044 23.0439C21.922 24.1659 20.59 25.056 19.1239 25.6632C17.6579 26.2705 16.0866 26.583 14.4998 26.583ZM14.4998 4.83301C12.588 4.83301 10.719 5.39995 9.12933 6.46214C7.53965 7.52432 6.30065 9.03405 5.56901 10.8004C4.83736 12.5668 4.64593 14.5104 5.01892 16.3855C5.39191 18.2607 6.31257 19.9831 7.66448 21.335C9.01638 22.6869 10.7388 23.6076 12.614 23.9806C14.4891 24.3536 16.4328 24.1622 18.1991 23.4305C19.9655 22.6989 21.4752 21.4599 22.5374 19.8702C23.5996 18.2805 24.1665 16.4116 24.1665 14.4997C24.1665 11.9359 23.1481 9.47716 21.3352 7.66431C19.5224 5.85146 17.0636 4.83301 14.4998 4.83301Z" fill="#0C0C0C"/>
<path d="M18.1248 15.708H15.7082V18.1247C15.7082 18.4451 15.5809 18.7525 15.3543 18.9791C15.1277 19.2057 14.8203 19.333 14.4998 19.333C14.1794 19.333 13.872 19.2057 13.6454 18.9791C13.4188 18.7525 13.2915 18.4451 13.2915 18.1247V15.708H10.8748C10.5544 15.708 10.247 15.5807 10.0204 15.3541C9.79381 15.1275 9.6665 14.8201 9.6665 14.4997C9.6665 14.1792 9.79381 13.8719 10.0204 13.6453C10.247 13.4186 10.5544 13.2913 10.8748 13.2913H13.2915V10.8747C13.2915 10.5542 13.4188 10.2469 13.6454 10.0203C13.872 9.79365 14.1794 9.66634 14.4998 9.66634C14.8203 9.66634 15.1277 9.79365 15.3543 10.0203C15.5809 10.2469 15.7082 10.5542 15.7082 10.8747V13.2913H18.1248C18.4453 13.2913 18.7527 13.4186 18.9793 13.6453C19.2059 13.8719 19.3332 14.1792 19.3332 14.4997C19.3332 14.8201 19.2059 15.1275 18.9793 15.3541C18.7527 15.5807 18.4453 15.708 18.1248 15.708Z" fill="#0C0C0C"/>
</svg>
